<svg xmlns="http://www.w3.org/2000/svg" viewBox="0 0 1100 700">
  <defs>
    <marker id="arrow" markerWidth="10" markerHeight="7" refX="10" refY="3.5" orient="auto">
      <polygon points="0 0, 10 3.5, 0 7" fill="#4a9eff" opacity="0.5"/>
    </marker>
    <marker id="arrow-green" markerWidth="10" markerHeight="7" refX="10" refY="3.5" orient="auto">
      <polygon points="0 0, 10 3.5, 0 7" fill="#27ae60" opacity="0.5"/>
    </marker>
    <marker id="arrow-orange" markerWidth="10" markerHeight="7" refX="10" refY="3.5" orient="auto">
      <polygon points="0 0, 10 3.5, 0 7" fill="#e67e22" opacity="0.5"/>
    </marker>
    <marker id="arrow-purple" markerWidth="10" markerHeight="7" refX="10" refY="3.5" orient="auto">
      <polygon points="0 0, 10 3.5, 0 7" fill="#9b59b6" opacity="0.5"/>
    </marker>
  </defs>

  <style>
    text { font-family: Inter, sans-serif; }
  </style>

  <!-- Background -->
  <rect width="1100" height="700" fill="#0d1117" rx="8"/>

  <!-- Title -->
  <text x="550" y="38" text-anchor="middle" fill="#e0e0e0" font-size="22" font-weight="700">VibeCody Architecture</text>

  <!-- ========== TOP ROW: Access Surfaces (Blue) ========== -->
  <text x="550" y="68" text-anchor="middle" fill="#4a9eff" font-size="11" font-weight="600" letter-spacing="2">ACCESS SURFACES</text>

  <!-- Row 1: 4 boxes -->
  <rect x="30" y="82" width="240" height="48" rx="6" fill="#12243d" stroke="#4a9eff" stroke-width="1.2"/>
  <text x="150" y="102" text-anchor="middle" fill="#e0e0e0" font-size="12" font-weight="600">VibeCLI</text>
  <text x="150" y="118" text-anchor="middle" fill="#8b949e" font-size="9">REPL + TUI (Ratatui + Rustyline)</text>

  <rect x="290" y="82" width="240" height="48" rx="6" fill="#12243d" stroke="#4a9eff" stroke-width="1.2"/>
  <text x="410" y="102" text-anchor="middle" fill="#e0e0e0" font-size="12" font-weight="600">VibeUI</text>
  <text x="410" y="118" text-anchor="middle" fill="#8b949e" font-size="9">Tauri 2 + Monaco + React</text>

  <rect x="550" y="82" width="240" height="48" rx="6" fill="#12243d" stroke="#4a9eff" stroke-width="1.2"/>
  <text x="670" y="102" text-anchor="middle" fill="#e0e0e0" font-size="12" font-weight="600">Web Client</text>
  <text x="670" y="118" text-anchor="middle" fill="#8b949e" font-size="9">Single-Page Application</text>

  <rect x="810" y="82" width="260" height="48" rx="6" fill="#12243d" stroke="#4a9eff" stroke-width="1.2"/>
  <text x="940" y="102" text-anchor="middle" fill="#e0e0e0" font-size="12" font-weight="600">VS Code Extension</text>
  <text x="940" y="118" text-anchor="middle" fill="#8b949e" font-size="9">Inline Chat + Sidebar</text>

  <!-- Row 2: 4 boxes -->
  <rect x="30" y="140" width="240" height="48" rx="6" fill="#12243d" stroke="#4a9eff" stroke-width="1.2"/>
  <text x="150" y="160" text-anchor="middle" fill="#e0e0e0" font-size="12" font-weight="600">JetBrains Plugin</text>
  <text x="150" y="176" text-anchor="middle" fill="#8b949e" font-size="9">IntelliJ / GoLand / PyCharm</text>

  <rect x="290" y="140" width="240" height="48" rx="6" fill="#12243d" stroke="#4a9eff" stroke-width="1.2"/>
  <text x="410" y="160" text-anchor="middle" fill="#e0e0e0" font-size="12" font-weight="600">Neovim Plugin</text>
  <text x="410" y="176" text-anchor="middle" fill="#8b949e" font-size="9">Lua integration</text>

  <rect x="550" y="140" width="240" height="48" rx="6" fill="#12243d" stroke="#4a9eff" stroke-width="1.2"/>
  <text x="670" y="160" text-anchor="middle" fill="#e0e0e0" font-size="12" font-weight="600">VibeMobile</text>
  <text x="670" y="176" text-anchor="middle" fill="#8b949e" font-size="9">Flutter (iOS / Android / Desktop)</text>

  <rect x="810" y="140" width="260" height="48" rx="6" fill="#12243d" stroke="#4a9eff" stroke-width="1.2"/>
  <text x="940" y="160" text-anchor="middle" fill="#e0e0e0" font-size="12" font-weight="600">HTTP Daemon</text>
  <text x="940" y="176" text-anchor="middle" fill="#8b949e" font-size="9">REST API (serve.rs)</text>

  <!-- ========== Arrows: Top Row -> Middle Row ========== -->
  <line x1="150" y1="188" x2="150" y2="258" stroke="#4a9eff" stroke-width="1" opacity="0.35" marker-end="url(#arrow)"/>
  <line x1="410" y1="188" x2="350" y2="258" stroke="#4a9eff" stroke-width="1" opacity="0.35" marker-end="url(#arrow)"/>
  <line x1="670" y1="188" x2="650" y2="258" stroke="#4a9eff" stroke-width="1" opacity="0.35" marker-end="url(#arrow)"/>
  <line x1="940" y1="188" x2="900" y2="258" stroke="#4a9eff" stroke-width="1" opacity="0.35" marker-end="url(#arrow)"/>

  <!-- ========== MIDDLE ROW: Core Engine (Green) ========== -->
  <text x="550" y="248" text-anchor="middle" fill="#27ae60" font-size="11" font-weight="600" letter-spacing="2">CORE ENGINE</text>

  <rect x="30" y="258" width="250" height="60" rx="6" fill="#0a2d1a" stroke="#27ae60" stroke-width="1.2"/>
  <text x="155" y="282" text-anchor="middle" fill="#e0e0e0" font-size="12" font-weight="600">Agent Loop</text>
  <text x="155" y="298" text-anchor="middle" fill="#8b949e" font-size="9">ReAct + MCTS + Plan Mode</text>
  <text x="155" y="310" text-anchor="middle" fill="#8b949e" font-size="9">Orchestration + Workflow Engine</text>

  <rect x="295" y="258" width="240" height="60" rx="6" fill="#0a2d1a" stroke="#27ae60" stroke-width="1.2"/>
  <text x="415" y="282" text-anchor="middle" fill="#e0e0e0" font-size="12" font-weight="600">Tool Executor</text>
  <text x="415" y="298" text-anchor="middle" fill="#8b949e" font-size="9">7 Core Tools + Extensions</text>
  <text x="415" y="310" text-anchor="middle" fill="#8b949e" font-size="9">Sandboxed Execution</text>

  <rect x="550" y="258" width="250" height="60" rx="6" fill="#0a2d1a" stroke="#27ae60" stroke-width="1.2"/>
  <text x="675" y="282" text-anchor="middle" fill="#e0e0e0" font-size="12" font-weight="600">23 AI Providers</text>
  <text x="675" y="298" text-anchor="middle" fill="#8b949e" font-size="9">Failover + Cost Routing</text>
  <text x="675" y="310" text-anchor="middle" fill="#8b949e" font-size="9">Claude, GPT, Gemini, Ollama ...</text>

  <rect x="815" y="258" width="255" height="60" rx="6" fill="#0a2d1a" stroke="#27ae60" stroke-width="1.2"/>
  <text x="942" y="282" text-anchor="middle" fill="#e0e0e0" font-size="12" font-weight="600">Protocol Hub</text>
  <text x="942" y="298" text-anchor="middle" fill="#8b949e" font-size="9">MCP + ACP + A2A</text>
  <text x="942" y="310" text-anchor="middle" fill="#8b949e" font-size="9">Agent-to-Agent Communication</text>

  <!-- Horizontal connections in middle row -->
  <line x1="280" y1="288" x2="295" y2="288" stroke="#27ae60" stroke-width="1" opacity="0.4"/>
  <line x1="535" y1="288" x2="550" y2="288" stroke="#27ae60" stroke-width="1" opacity="0.4"/>
  <line x1="800" y1="288" x2="815" y2="288" stroke="#27ae60" stroke-width="1" opacity="0.4"/>

  <!-- ========== Arrows: Middle Row -> Bottom Rows ========== -->
  <!-- To orange (bottom-left) -->
  <line x1="155" y1="318" x2="155" y2="400" stroke="#27ae60" stroke-width="1" opacity="0.35" marker-end="url(#arrow-orange)"/>
  <line x1="415" y1="318" x2="300" y2="400" stroke="#27ae60" stroke-width="1" opacity="0.35" marker-end="url(#arrow-orange)"/>

  <!-- To purple (bottom-right) -->
  <line x1="675" y1="318" x2="750" y2="400" stroke="#27ae60" stroke-width="1" opacity="0.35" marker-end="url(#arrow-purple)"/>
  <line x1="942" y1="318" x2="942" y2="400" stroke="#27ae60" stroke-width="1" opacity="0.35" marker-end="url(#arrow-purple)"/>

  <!-- ========== BOTTOM LEFT: Intelligence (Orange) ========== -->
  <text x="275" y="390" text-anchor="middle" fill="#e67e22" font-size="11" font-weight="600" letter-spacing="2">INTELLIGENCE</text>

  <rect x="30" y="405" width="240" height="55" rx="6" fill="#2d1a0a" stroke="#e67e22" stroke-width="1.2"/>
  <text x="150" y="428" text-anchor="middle" fill="#e0e0e0" font-size="12" font-weight="600">Semantic Index</text>
  <text x="150" y="444" text-anchor="middle" fill="#8b949e" font-size="9">AST Parsing + Call Graphs + Embeddings</text>

  <rect x="290" y="405" width="240" height="55" rx="6" fill="#2d1a0a" stroke="#e67e22" stroke-width="1.2"/>
  <text x="410" y="428" text-anchor="middle" fill="#e0e0e0" font-size="12" font-weight="600">OpenMemory</text>
  <text x="410" y="444" text-anchor="middle" fill="#8b949e" font-size="9">5 Cognitive Sectors + HNSW Index</text>

  <rect x="30" y="472" width="240" height="55" rx="6" fill="#2d1a0a" stroke="#e67e22" stroke-width="1.2"/>
  <text x="150" y="495" text-anchor="middle" fill="#e0e0e0" font-size="12" font-weight="600">568 Skills Library</text>
  <text x="150" y="511" text-anchor="middle" fill="#8b949e" font-size="9">25+ Categories + Domain Experts</text>

  <rect x="290" y="472" width="240" height="55" rx="6" fill="#2d1a0a" stroke="#e67e22" stroke-width="1.2"/>
  <text x="410" y="495" text-anchor="middle" fill="#e0e0e0" font-size="12" font-weight="600">Proactive Agent</text>
  <text x="410" y="511" text-anchor="middle" fill="#8b949e" font-size="9">Edit Prediction + AutoResearch</text>

  <!-- ========== BOTTOM RIGHT: Infrastructure (Purple) ========== -->
  <text x="830" y="390" text-anchor="middle" fill="#9b59b6" font-size="11" font-weight="600" letter-spacing="2">INFRASTRUCTURE</text>

  <rect x="570" y="405" width="250" height="55" rx="6" fill="#1a0a2d" stroke="#9b59b6" stroke-width="1.2"/>
  <text x="695" y="428" text-anchor="middle" fill="#e0e0e0" font-size="12" font-weight="600">Session Store</text>
  <text x="695" y="444" text-anchor="middle" fill="#8b949e" font-size="9">SQLite + Checkpoints + Traces</text>

  <rect x="835" y="405" width="235" height="55" rx="6" fill="#1a0a2d" stroke="#9b59b6" stroke-width="1.2"/>
  <text x="952" y="428" text-anchor="middle" fill="#e0e0e0" font-size="12" font-weight="600">Worktree Pool</text>
  <text x="952" y="444" text-anchor="middle" fill="#8b949e" font-size="9">Parallel Agent Branches</text>

  <rect x="570" y="472" width="250" height="55" rx="6" fill="#1a0a2d" stroke="#9b59b6" stroke-width="1.2"/>
  <text x="695" y="495" text-anchor="middle" fill="#e0e0e0" font-size="12" font-weight="600">Container Runtime</text>
  <text x="695" y="511" text-anchor="middle" fill="#8b949e" font-size="9">Docker / Podman / OpenSandbox</text>

  <rect x="835" y="472" width="235" height="55" rx="6" fill="#1a0a2d" stroke="#9b59b6" stroke-width="1.2"/>
  <text x="952" y="495" text-anchor="middle" fill="#e0e0e0" font-size="12" font-weight="600">18-Platform Gateway</text>
  <text x="952" y="511" text-anchor="middle" fill="#8b949e" font-size="9">Telegram, Discord, Slack ...</text>

  <!-- ========== Cross-connections within bottom sections ========== -->
  <!-- Orange internal -->
  <line x1="270" y1="432" x2="290" y2="432" stroke="#e67e22" stroke-width="0.8" opacity="0.3"/>
  <line x1="270" y1="499" x2="290" y2="499" stroke="#e67e22" stroke-width="0.8" opacity="0.3"/>
  <line x1="150" y1="460" x2="150" y2="472" stroke="#e67e22" stroke-width="0.8" opacity="0.3"/>
  <line x1="410" y1="460" x2="410" y2="472" stroke="#e67e22" stroke-width="0.8" opacity="0.3"/>

  <!-- Purple internal -->
  <line x1="820" y1="432" x2="835" y2="432" stroke="#9b59b6" stroke-width="0.8" opacity="0.3"/>
  <line x1="820" y1="499" x2="835" y2="499" stroke="#9b59b6" stroke-width="0.8" opacity="0.3"/>
  <line x1="695" y1="460" x2="695" y2="472" stroke="#9b59b6" stroke-width="0.8" opacity="0.3"/>
  <line x1="952" y1="460" x2="952" y2="472" stroke="#9b59b6" stroke-width="0.8" opacity="0.3"/>

  <!-- ========== Divider Line ========== -->
  <line x1="30" y1="560" x2="1070" y2="560" stroke="#21262d" stroke-width="1"/>

  <!-- ========== Stats Footer ========== -->
  <text x="550" y="590" text-anchor="middle" fill="#8b949e" font-size="13" font-weight="500">9,570 tests  |  185 modules  |  187 panels  |  MIT License</text>

  <!-- ========== Legend ========== -->
  <rect x="310" y="615" width="14" height="14" rx="3" fill="#12243d" stroke="#4a9eff" stroke-width="1"/>
  <text x="330" y="626" fill="#8b949e" font-size="10">Access Surfaces</text>

  <rect x="440" y="615" width="14" height="14" rx="3" fill="#0a2d1a" stroke="#27ae60" stroke-width="1"/>
  <text x="460" y="626" fill="#8b949e" font-size="10">Core Engine</text>

  <rect x="550" y="615" width="14" height="14" rx="3" fill="#2d1a0a" stroke="#e67e22" stroke-width="1"/>
  <text x="570" y="626" fill="#8b949e" font-size="10">Intelligence</text>

  <rect x="660" y="615" width="14" height="14" rx="3" fill="#1a0a2d" stroke="#9b59b6" stroke-width="1"/>
  <text x="680" y="626" fill="#8b949e" font-size="10">Infrastructure</text>

  <!-- ========== Subtle background glow effects ========== -->
  <rect x="28" y="80" width="1044" height="112" rx="8" fill="none" stroke="#4a9eff" stroke-width="0.3" opacity="0.15"/>
  <rect x="28" y="255" width="1044" height="66" rx="8" fill="none" stroke="#27ae60" stroke-width="0.3" opacity="0.15"/>
  <rect x="28" y="398" width="504" height="132" rx="8" fill="none" stroke="#e67e22" stroke-width="0.3" opacity="0.15"/>
  <rect x="568" y="398" width="504" height="132" rx="8" fill="none" stroke="#9b59b6" stroke-width="0.3" opacity="0.15"/>
</svg>